STARTFONT 2.1
FONT -x-yakuza-medium-r-normal--10-100-75-75-n-60-ISO10646-1
SIZE 10 75 75
FONTBOUNDINGBOX 6 11 0 -2
COMMENT "not generated by fontforge, http://fontforge.sourceforge.net"
STARTPROPERTIES 26
FONTNAME_REGISTRY ""
FOUNDRY "x"
FAMILY_NAME "yakuza"
WEIGHT_NAME "medium"
SLANT "r"
SETWIDTH_NAME "normal"
ADD_STYLE_NAME ""
PIXEL_SIZE 10
POINT_SIZE 100
RESOLUTION_X 75
RESOLUTION_Y 75
SPACING "M"
AVERAGE_WIDTH 60
CHARSET_REGISTRY "ISO10646"
CHARSET_ENCODING "1"
COPYRIGHT "artwiz, fixed by aleczapka, latin1 chars by Sergio Martins, edits by eti"
FACE_NAME "yakuza"
WEIGHT 10
RESOLUTION 99
X_HEIGHT 6
QUAD_WIDTH 6
DEFAULT_CHAR 65536
FONT_ASCENT 9
FONT_DESCENT 2
_ORIGINAL_FONT_NAME "drift"
_GBDFED_INFO "Edited with gbdfed 1.6."
ENDPROPERTIES
CHARS 219
STARTCHAR START
ENCODING 1
SWIDTH 576 0
DWIDTH 6 0
BBX 5 8 0 0
BITMAP
70
88
D8
88
F8
A8
88
70
ENDCHAR
STARTCHAR START
ENCODING 2
SWIDTH 576 0
DWIDTH 6 0
BBX 5 8 0 0
BITMAP
70
F8
A8
F8
88
D8
F8
70
ENDCHAR
STARTCHAR END
ENCODING 3
SWIDTH 576 0
DWIDTH 6 0
BBX 5 5 0 2
BITMAP
D8
F8
F8
70
20
ENDCHAR
STARTCHAR END
ENCODING 4
SWIDTH 576 0
DWIDTH 6 0
BBX 5 5 0 2
BITMAP
20
70
F8
70
20
ENDCHAR
STARTCHAR ENQUIRY
ENCODING 5
SWIDTH 576 0
DWIDTH 6 0
BBX 5 7 0 1
BITMAP
70
70
F8
F8
A8
20
70
ENDCHAR
STARTCHAR ACKNOWLEDGE
ENCODING 6
SWIDTH 576 0
DWIDTH 6 0
BBX 5 6 0 1
BITMAP
20
70
F8
F8
A8
70
ENDCHAR
STARTCHAR BELL
ENCODING 7
SWIDTH 576 0
DWIDTH 6 0
BBX 5 2 0 4
BITMAP
70
88
ENDCHAR
STARTCHAR BACKSPACE
ENCODING 8
SWIDTH 576 0
DWIDTH 6 0
BBX 5 3 0 3
BITMAP
30
48
80
ENDCHAR
STARTCHAR DEVICE
ENCODING 17
SWIDTH 576 0
DWIDTH 6 0
BBX 3 5 2 2
BITMAP
80
C0
E0
C0
80
ENDCHAR
STARTCHAR DEVICE
ENCODING 18
SWIDTH 576 0
DWIDTH 6 0
BBX 3 5 1 2
BITMAP
20
60
E0
60
20
ENDCHAR
STARTCHAR DEVICE
ENCODING 19
SWIDTH 576 0
DWIDTH 6 0
BBX 3 8 2 1
BITMAP
40
C0
40
40
40
40
E0
40
ENDCHAR
STARTCHAR DEVICE
ENCODING 20
SWIDTH 576 0
DWIDTH 6 0
BBX 3 8 1 1
BITMAP
A0
A0
A0
A0
A0
00
A0
A0
ENDCHAR
STARTCHAR NEGATIVE
ENCODING 21
SWIDTH 576 0
DWIDTH 6 0
BBX 4 6 1 2
BITMAP
F0
D0
50
50
50
50
ENDCHAR
STARTCHAR SYNCHRONOUS
ENCODING 22
SWIDTH 576 0
DWIDTH 6 0
BBX 4 7 1 1
BITMAP
70
90
60
90
60
90
E0
ENDCHAR
STARTCHAR END
ENCODING 23
SWIDTH 576 0
DWIDTH 6 0
BBX 4 2 1 2
BITMAP
F0
F0
ENDCHAR
STARTCHAR CANCEL
ENCODING 24
SWIDTH 576 0
DWIDTH 6 0
BBX 4 7 1 1
BITMAP
20
70
20
20
70
20
F0
ENDCHAR
STARTCHAR SUBSTITUTE
ENCODING 26
SWIDTH 576 0
DWIDTH 6 0
BBX 3 4 2 2
BITMAP
40
40
E0
40
ENDCHAR
STARTCHAR INFORMATION
ENCODING 28
SWIDTH 576 0
DWIDTH 6 0
BBX 4 3 1 3
BITMAP
80
80
F0
ENDCHAR
STARTCHAR INFORMATION
ENCODING 29
SWIDTH 576 0
DWIDTH 6 0
BBX 5 3 0 3
BITMAP
50
F8
50
ENDCHAR
STARTCHAR INFORMATION
ENCODING 30
SWIDTH 576 0
DWIDTH 6 0
BBX 5 3 0 3
BITMAP
20
70
F8
ENDCHAR
STARTCHAR INFORMATION
ENCODING 31
SWIDTH 576 0
DWIDTH 6 0
BBX 5 3 0 3
BITMAP
F8
70
20
ENDCHAR
STARTCHAR SPACE
ENCODING 32
SWIDTH 576 0
DWIDTH 6 0
BBX 0 0 0 0
BITMAP
ENDCHAR
STARTCHAR EXCLAMATION
ENCODING 33
SWIDTH 576 0
DWIDTH 6 0
BBX 1 7 2 0
BITMAP
80
80
80
80
00
80
80
ENDCHAR
STARTCHAR QUOTATION
ENCODING 34
SWIDTH 576 0
DWIDTH 6 0
BBX 3 3 2 5
BITMAP
A0
A0
A0
ENDCHAR
STARTCHAR NUMBER
ENCODING 35
SWIDTH 576 0
DWIDTH 6 0
BBX 5 7 0 0
BITMAP
50
50
D8
50
D8
50
50
ENDCHAR
STARTCHAR DOLLAR
ENCODING 36
SWIDTH 576 0
DWIDTH 6 0
BBX 4 9 1 -1
BITMAP
20
70
A0
A0
60
50
50
E0
40
ENDCHAR
STARTCHAR PERCENT
ENCODING 37
SWIDTH 576 0
DWIDTH 6 0
BBX 6 8 0 -1
BITMAP
08
88
90
10
20
24
44
40
ENDCHAR
STARTCHAR AMPERSAND
ENCODING 38
SWIDTH 576 0
DWIDTH 6 0
BBX 5 7 1 0
BITMAP
60
90
60
98
90
90
68
ENDCHAR
STARTCHAR APOSTROPHE
ENCODING 39
SWIDTH 576 0
DWIDTH 6 0
BBX 1 3 2 5
BITMAP
80
80
80
ENDCHAR
STARTCHAR LEFT
ENCODING 40
SWIDTH 576 0
DWIDTH 6 0
BBX 3 9 2 -1
BITMAP
60
80
80
80
80
80
80
80
60
ENDCHAR
STARTCHAR RIGHT
ENCODING 41
SWIDTH 576 0
DWIDTH 6 0
BBX 3 9 1 -1
BITMAP
C0
20
20
20
20
20
20
20
C0
ENDCHAR
STARTCHAR ASTERISK
ENCODING 42
SWIDTH 576 0
DWIDTH 6 0
BBX 4 5 1 1
BITMAP
90
60
F0
60
90
ENDCHAR
STARTCHAR PLUS
ENCODING 43
SWIDTH 576 0
DWIDTH 6 0
BBX 5 5 1 1
BITMAP
20
20
F8
20
20
ENDCHAR
STARTCHAR COMMA
ENCODING 44
SWIDTH 576 0
DWIDTH 6 0
BBX 2 4 1 -2
BITMAP
40
40
40
80
ENDCHAR
STARTCHAR HYPHEN-MINUS
ENCODING 45
SWIDTH 576 0
DWIDTH 6 0
BBX 4 1 1 3
BITMAP
F0
ENDCHAR
STARTCHAR FULL
ENCODING 46
SWIDTH 576 0
DWIDTH 6 0
BBX 1 2 2 0
BITMAP
80
80
ENDCHAR
STARTCHAR SOLIDUS
ENCODING 47
SWIDTH 576 0
DWIDTH 6 0
BBX 4 8 1 -1
BITMAP
10
10
20
20
40
40
80
80
ENDCHAR
STARTCHAR DIGIT
ENCODING 48
SWIDTH 576 0
DWIDTH 6 0
BBX 4 7 1 0
BITMAP
60
90
B0
D0
90
90
60
ENDCHAR
STARTCHAR DIGIT
ENCODING 49
SWIDTH 576 0
DWIDTH 6 0
BBX 2 7 2 0
BITMAP
40
C0
40
40
40
40
40
ENDCHAR
STARTCHAR DIGIT
ENCODING 50
SWIDTH 576 0
DWIDTH 6 0
BBX 4 7 1 0
BITMAP
60
90
10
20
40
80
F0
ENDCHAR
STARTCHAR DIGIT
ENCODING 51
SWIDTH 576 0
DWIDTH 6 0
BBX 4 7 1 0
BITMAP
60
90
10
60
10
90
60
ENDCHAR
STARTCHAR DIGIT
ENCODING 52
SWIDTH 576 0
DWIDTH 6 0
BBX 4 7 1 0
BITMAP
90
90
90
70
10
10
10
ENDCHAR
STARTCHAR DIGIT
ENCODING 53
SWIDTH 576 0
DWIDTH 6 0
BBX 4 7 1 0
BITMAP
F0
80
E0
10
10
90
60
ENDCHAR
STARTCHAR DIGIT
ENCODING 54
SWIDTH 576 0
DWIDTH 6 0
BBX 4 7 1 0
BITMAP
60
80
E0
90
90
90
60
ENDCHAR
STARTCHAR DIGIT
ENCODING 55
SWIDTH 576 0
DWIDTH 6 0
BBX 4 7 1 0
BITMAP
F0
10
10
20
20
40
40
ENDCHAR
STARTCHAR DIGIT
ENCODING 56
SWIDTH 576 0
DWIDTH 6 0
BBX 4 7 1 0
BITMAP
60
90
90
60
90
90
60
ENDCHAR
STARTCHAR DIGIT
ENCODING 57
SWIDTH 576 0
DWIDTH 6 0
BBX 4 7 1 0
BITMAP
60
90
90
70
10
90
60
ENDCHAR
STARTCHAR COLON
ENCODING 58
SWIDTH 576 0
DWIDTH 6 0
BBX 1 6 2 0
BITMAP
80
80
00
00
80
80
ENDCHAR
STARTCHAR SEMICOLON
ENCODING 59
SWIDTH 576 0
DWIDTH 6 0
BBX 2 8 1 -2
BITMAP
40
40
00
00
40
40
40
80
ENDCHAR
STARTCHAR LESS-THAN
ENCODING 60
SWIDTH 576 0
DWIDTH 6 0
BBX 3 5 2 1
BITMAP
20
40
80
40
20
ENDCHAR
STARTCHAR EQUALS
ENCODING 61
SWIDTH 576 0
DWIDTH 6 0
BBX 4 3 1 2
BITMAP
F0
00
F0
ENDCHAR
STARTCHAR GREATER-THAN
ENCODING 62
SWIDTH 576 0
DWIDTH 6 0
BBX 3 5 1 1
BITMAP
80
40
20
40
80
ENDCHAR
STARTCHAR QUESTION
ENCODING 63
SWIDTH 576 0
DWIDTH 6 0
BBX 4 7 1 0
BITMAP
60
90
10
20
40
00
40
ENDCHAR
STARTCHAR COMMERCIAL
ENCODING 64
SWIDTH 576 0
DWIDTH 6 0
BBX 4 7 1 0
BITMAP
60
90
90
B0
B0
80
70
ENDCHAR
STARTCHAR LATIN
ENCODING 65
SWIDTH 576 0
DWIDTH 6 0
BBX 4 7 1 0
BITMAP
60
90
90
90
F0
90
90
ENDCHAR
STARTCHAR LATIN
ENCODING 66
SWIDTH 576 0
DWIDTH 6 0
BBX 4 7 1 0
BITMAP
E0
90
90
E0
90
90
E0
ENDCHAR
STARTCHAR LATIN
ENCODING 67
SWIDTH 576 0
DWIDTH 6 0
BBX 4 7 1 0
BITMAP
60
90
80
80
80
90
60
ENDCHAR
STARTCHAR LATIN
ENCODING 68
SWIDTH 576 0
DWIDTH 6 0
BBX 4 7 1 0
BITMAP
E0
90
90
90
90
90
E0
ENDCHAR
STARTCHAR LATIN
ENCODING 69
SWIDTH 576 0
DWIDTH 6 0
BBX 4 7 1 0
BITMAP
F0
80
80
E0
80
80
F0
ENDCHAR
STARTCHAR LATIN
ENCODING 70
SWIDTH 576 0
DWIDTH 6 0
BBX 4 7 1 0
BITMAP
F0
80
80
E0
80
80
80
ENDCHAR
STARTCHAR LATIN
ENCODING 71
SWIDTH 576 0
DWIDTH 6 0
BBX 4 7 1 0
BITMAP
60
90
80
B0
90
90
60
ENDCHAR
STARTCHAR LATIN
ENCODING 72
SWIDTH 576 0
DWIDTH 6 0
BBX 4 7 1 0
BITMAP
90
90
90
F0
90
90
90
ENDCHAR
STARTCHAR LATIN
ENCODING 73
SWIDTH 576 0
DWIDTH 6 0
BBX 3 7 2 0
BITMAP
E0
40
40
40
40
40
E0
ENDCHAR
STARTCHAR LATIN
ENCODING 74
SWIDTH 576 0
DWIDTH 6 0
BBX 4 7 1 0
BITMAP
70
10
10
10
10
90
60
ENDCHAR
STARTCHAR LATIN
ENCODING 75
SWIDTH 576 0
DWIDTH 6 0
BBX 5 7 1 0
BITMAP
88
90
A0
C0
A0
90
88
ENDCHAR
STARTCHAR LATIN
ENCODING 76
SWIDTH 576 0
DWIDTH 6 0
BBX 4 7 1 0
BITMAP
80
80
80
80
80
80
F0
ENDCHAR
STARTCHAR LATIN
ENCODING 77
SWIDTH 576 0
DWIDTH 6 0
BBX 4 7 1 0
BITMAP
90
F0
B0
90
90
90
90
ENDCHAR
STARTCHAR LATIN
ENCODING 78
SWIDTH 576 0
DWIDTH 6 0
BBX 4 7 1 0
BITMAP
90
D0
D0
B0
B0
90
90
ENDCHAR
STARTCHAR LATIN
ENCODING 79
SWIDTH 576 0
DWIDTH 6 0
BBX 4 7 1 0
BITMAP
60
90
90
90
90
90
60
ENDCHAR
STARTCHAR LATIN
ENCODING 80
SWIDTH 576 0
DWIDTH 6 0
BBX 4 7 1 0
BITMAP
E0
90
90
E0
80
80
80
ENDCHAR
STARTCHAR LATIN
ENCODING 81
SWIDTH 576 0
DWIDTH 6 0
BBX 4 8 1 -1
BITMAP
60
90
90
90
90
D0
60
10
ENDCHAR
STARTCHAR LATIN
ENCODING 82
SWIDTH 576 0
DWIDTH 6 0
BBX 4 7 1 0
BITMAP
E0
90
90
E0
90
90
90
ENDCHAR
STARTCHAR LATIN
ENCODING 83
SWIDTH 576 0
DWIDTH 6 0
BBX 4 7 1 0
BITMAP
60
90
80
60
10
90
60
ENDCHAR
STARTCHAR LATIN
ENCODING 84
SWIDTH 576 0
DWIDTH 6 0
BBX 5 7 1 0
BITMAP
F8
20
20
20
20
20
20
ENDCHAR
STARTCHAR LATIN
ENCODING 85
SWIDTH 576 0
DWIDTH 6 0
BBX 4 7 1 0
BITMAP
90
90
90
90
90
90
60
ENDCHAR
STARTCHAR LATIN
ENCODING 86
SWIDTH 576 0
DWIDTH 6 0
BBX 4 7 1 0
BITMAP
90
90
90
90
90
60
60
ENDCHAR
STARTCHAR LATIN
ENCODING 87
SWIDTH 576 0
DWIDTH 6 0
BBX 4 7 1 0
BITMAP
90
90
90
90
B0
F0
90
ENDCHAR
STARTCHAR LATIN
ENCODING 88
SWIDTH 576 0
DWIDTH 6 0
BBX 4 7 1 0
BITMAP
90
90
60
60
60
90
90
ENDCHAR
STARTCHAR LATIN
ENCODING 89
SWIDTH 576 0
DWIDTH 6 0
BBX 5 7 1 0
BITMAP
88
88
50
20
20
20
20
ENDCHAR
STARTCHAR LATIN
ENCODING 90
SWIDTH 576 0
DWIDTH 6 0
BBX 4 7 1 0
BITMAP
F0
10
20
40
80
80
F0
ENDCHAR
STARTCHAR LEFT
ENCODING 91
SWIDTH 576 0
DWIDTH 6 0
BBX 3 9 2 -1
BITMAP
E0
80
80
80
80
80
80
80
E0
ENDCHAR
STARTCHAR REVERSE
ENCODING 92
SWIDTH 576 0
DWIDTH 6 0
BBX 4 8 1 -1
BITMAP
80
80
40
40
20
20
10
10
ENDCHAR
STARTCHAR RIGHT
ENCODING 93
SWIDTH 576 0
DWIDTH 6 0
BBX 3 9 1 -1
BITMAP
E0
20
20
20
20
20
20
20
E0
ENDCHAR
STARTCHAR CIRCUMFLEX
ENCODING 94
SWIDTH 576 0
DWIDTH 6 0
BBX 5 3 1 4
BITMAP
20
50
88
ENDCHAR
STARTCHAR LOW
ENCODING 95
SWIDTH 576 0
DWIDTH 6 0
BBX 6 1 0 -1
BITMAP
FC
ENDCHAR
STARTCHAR GRAVE
ENCODING 96
SWIDTH 576 0
DWIDTH 6 0
BBX 2 3 2 5
BITMAP
40
80
80
ENDCHAR
STARTCHAR LATIN
ENCODING 97
SWIDTH 576 0
DWIDTH 6 0
BBX 4 6 1 0
BITMAP
60
90
90
90
B0
50
ENDCHAR
STARTCHAR LATIN
ENCODING 98
SWIDTH 576 0
DWIDTH 6 0
BBX 4 8 1 0
BITMAP
80
80
E0
90
90
90
90
E0
ENDCHAR
STARTCHAR LATIN
ENCODING 99
SWIDTH 576 0
DWIDTH 6 0
BBX 4 6 1 0
BITMAP
60
90
80
80
90
60
ENDCHAR
STARTCHAR LATIN
ENCODING 100
SWIDTH 576 0
DWIDTH 6 0
BBX 4 8 1 0
BITMAP
10
10
70
90
90
90
B0
50
ENDCHAR
STARTCHAR LATIN
ENCODING 101
SWIDTH 576 0
DWIDTH 6 0
BBX 4 6 1 0
BITMAP
60
90
F0
80
90
60
ENDCHAR
STARTCHAR LATIN
ENCODING 102
SWIDTH 576 0
DWIDTH 6 0
BBX 3 8 2 0
BITMAP
60
80
E0
80
80
80
80
80
ENDCHAR
STARTCHAR LATIN
ENCODING 103
SWIDTH 576 0
DWIDTH 6 0
BBX 4 8 1 -2
BITMAP
70
90
90
90
B0
50
10
60
ENDCHAR
STARTCHAR LATIN
ENCODING 104
SWIDTH 576 0
DWIDTH 6 0
BBX 4 8 1 0
BITMAP
80
80
A0
D0
90
90
90
90
ENDCHAR
STARTCHAR LATIN
ENCODING 105
SWIDTH 576 0
DWIDTH 6 0
BBX 3 8 2 0
BITMAP
40
00
C0
40
40
40
40
E0
ENDCHAR
STARTCHAR LATIN
ENCODING 106
SWIDTH 576 0
DWIDTH 6 0
BBX 3 10 1 -2
BITMAP
20
00
60
20
20
20
20
20
20
C0
ENDCHAR
STARTCHAR LATIN
ENCODING 107
SWIDTH 576 0
DWIDTH 6 0
BBX 4 8 1 0
BITMAP
80
80
90
A0
C0
A0
90
90
ENDCHAR
STARTCHAR LATIN
ENCODING 108
SWIDTH 576 0
DWIDTH 6 0
BBX 1 8 3 0
BITMAP
80
80
80
80
80
80
80
80
ENDCHAR
STARTCHAR LATIN
ENCODING 109
SWIDTH 576 0
DWIDTH 6 0
BBX 4 6 1 0
BITMAP
90
F0
B0
90
90
90
ENDCHAR
STARTCHAR LATIN
ENCODING 110
SWIDTH 576 0
DWIDTH 6 0
BBX 4 6 1 0
BITMAP
A0
D0
90
90
90
90
ENDCHAR
STARTCHAR LATIN
ENCODING 111
SWIDTH 576 0
DWIDTH 6 0
BBX 4 6 1 0
BITMAP
60
90
90
90
90
60
ENDCHAR
STARTCHAR LATIN
ENCODING 112
SWIDTH 576 0
DWIDTH 6 0
BBX 4 8 1 -2
BITMAP
E0
90
90
90
90
E0
80
80
ENDCHAR
STARTCHAR LATIN
ENCODING 113
SWIDTH 576 0
DWIDTH 6 0
BBX 4 8 1 -2
BITMAP
70
90
90
90
B0
50
10
10
ENDCHAR
STARTCHAR LATIN
ENCODING 114
SWIDTH 576 0
DWIDTH 6 0
BBX 4 6 1 0
BITMAP
A0
D0
80
80
80
80
ENDCHAR
STARTCHAR LATIN
ENCODING 115
SWIDTH 576 0
DWIDTH 6 0
BBX 4 6 1 0
BITMAP
60
90
60
10
90
60
ENDCHAR
STARTCHAR LATIN
ENCODING 116
SWIDTH 576 0
DWIDTH 6 0
BBX 4 7 1 0
BITMAP
40
F0
40
40
40
40
20
ENDCHAR
STARTCHAR LATIN
ENCODING 117
SWIDTH 576 0
DWIDTH 6 0
BBX 4 6 1 0
BITMAP
90
90
90
90
B0
50
ENDCHAR
STARTCHAR LATIN
ENCODING 118
SWIDTH 576 0
DWIDTH 6 0
BBX 4 6 1 0
BITMAP
90
90
90
90
60
60
ENDCHAR
STARTCHAR LATIN
ENCODING 119
SWIDTH 576 0
DWIDTH 6 0
BBX 4 6 1 0
BITMAP
90
90
90
B0
F0
90
ENDCHAR
STARTCHAR LATIN
ENCODING 120
SWIDTH 576 0
DWIDTH 6 0
BBX 4 6 1 0
BITMAP
90
90
60
90
90
90
ENDCHAR
STARTCHAR LATIN
ENCODING 121
SWIDTH 576 0
DWIDTH 6 0
BBX 4 8 1 -2
BITMAP
90
90
90
90
90
70
10
60
ENDCHAR
STARTCHAR LATIN
ENCODING 122
SWIDTH 576 0
DWIDTH 6 0
BBX 4 6 1 0
BITMAP
F0
10
20
40
80
F0
ENDCHAR
STARTCHAR LEFT
ENCODING 123
SWIDTH 576 0
DWIDTH 6 0
BBX 5 9 0 -1
BITMAP
18
20
20
20
C0
20
20
20
18
ENDCHAR
STARTCHAR VERTICAL
ENCODING 124
SWIDTH 576 0
DWIDTH 6 0
BBX 1 9 3 -1
BITMAP
80
80
80
80
80
80
80
80
80
ENDCHAR
STARTCHAR RIGHT
ENCODING 125
SWIDTH 576 0
DWIDTH 6 0
BBX 5 9 1 -1
BITMAP
C0
20
20
20
18
20
20
20
C0
ENDCHAR
STARTCHAR TILDE
ENCODING 126
SWIDTH 576 0
DWIDTH 6 0
BBX 6 2 0 3
BITMAP
64
98
ENDCHAR
STARTCHAR INVERTED
ENCODING 161
SWIDTH 576 0
DWIDTH 6 0
BBX 1 8 2 0
BITMAP
80
80
00
80
80
80
80
80
ENDCHAR
STARTCHAR CENT
ENCODING 162
SWIDTH 576 0
DWIDTH 6 0
BBX 4 8 1 -1
BITMAP
10
60
B0
A0
C0
D0
60
80
ENDCHAR
STARTCHAR POUND
ENCODING 163
SWIDTH 576 0
DWIDTH 6 0
BBX 4 6 0 0
BITMAP
30
40
40
E0
40
F0
ENDCHAR
STARTCHAR CURRENCY
ENCODING 164
SWIDTH 576 0
DWIDTH 6 0
BBX 5 6 0 1
BITMAP
88
70
50
50
70
88
ENDCHAR
STARTCHAR YEN
ENCODING 165
SWIDTH 576 0
DWIDTH 6 0
BBX 3 7 1 0
BITMAP
A0
A0
40
E0
40
E0
40
ENDCHAR
STARTCHAR BROKEN
ENCODING 166
SWIDTH 576 0
DWIDTH 6 0
BBX 1 7 2 1
BITMAP
80
80
80
00
80
80
80
ENDCHAR
STARTCHAR SECTION
ENCODING 167
SWIDTH 576 0
DWIDTH 6 0
BBX 4 7 1 1
BITMAP
70
80
60
90
60
10
E0
ENDCHAR
STARTCHAR DIAERESIS
ENCODING 168
SWIDTH 576 0
DWIDTH 6 0
BBX 4 1 1 8
BITMAP
90
ENDCHAR
STARTCHAR COPYRIGHT
ENCODING 169
SWIDTH 576 0
DWIDTH 6 0
BBX 6 8 0 0
BITMAP
78
84
B4
A4
A4
B4
84
78
ENDCHAR
STARTCHAR FEMININE
ENCODING 170
SWIDTH 576 0
DWIDTH 6 0
BBX 4 7 1 2
BITMAP
60
90
90
B0
50
00
F0
ENDCHAR
STARTCHAR LEFT-POINTING
ENCODING 171
SWIDTH 576 0
DWIDTH 6 0
BBX 5 5 0 2
BITMAP
28
50
A0
50
28
ENDCHAR
STARTCHAR NOT
ENCODING 172
SWIDTH 576 0
DWIDTH 6 0
BBX 5 3 0 1
BITMAP
F8
08
08
ENDCHAR
STARTCHAR REGISTERED
ENCODING 174
SWIDTH 576 0
DWIDTH 6 0
BBX 6 8 0 0
BITMAP
78
84
F4
D4
E4
D4
84
78
ENDCHAR
STARTCHAR MACRON
ENCODING 175
SWIDTH 576 0
DWIDTH 6 0
BBX 4 1 1 7
BITMAP
F0
ENDCHAR
STARTCHAR DEGREE
ENCODING 176
SWIDTH 576 0
DWIDTH 6 0
BBX 4 4 1 5
BITMAP
60
90
90
60
ENDCHAR
STARTCHAR PLUS-MINUS
ENCODING 177
SWIDTH 576 0
DWIDTH 6 0
BBX 3 5 2 1
BITMAP
40
E0
40
00
E0
ENDCHAR
STARTCHAR SUPERSCRIPT
ENCODING 178
SWIDTH 576 0
DWIDTH 6 0
BBX 3 4 1 4
BITMAP
C0
20
40
E0
ENDCHAR
STARTCHAR SUPERSCRIPT
ENCODING 179
SWIDTH 576 0
DWIDTH 6 0
BBX 3 5 1 3
BITMAP
C0
20
40
20
C0
ENDCHAR
STARTCHAR ACUTE
ENCODING 180
SWIDTH 576 0
DWIDTH 6 0
BBX 2 2 2 7
BITMAP
40
80
ENDCHAR
STARTCHAR MICRO
ENCODING 181
SWIDTH 576 0
DWIDTH 6 0
BBX 4 7 1 -1
BITMAP
90
90
90
90
B0
D0
80
ENDCHAR
STARTCHAR PILCROW
ENCODING 182
SWIDTH 576 0
DWIDTH 6 0
BBX 4 6 1 2
BITMAP
F0
D0
50
50
50
50
ENDCHAR
STARTCHAR MIDDLE
ENCODING 183
SWIDTH 576 0
DWIDTH 6 0
BBX 2 2 2 2
BITMAP
C0
C0
ENDCHAR
STARTCHAR CEDILLA
ENCODING 184
SWIDTH 576 0
DWIDTH 6 0
BBX 3 3 1 1
BITMAP
40
20
E0
ENDCHAR
STARTCHAR SUPERSCRIPT
ENCODING 185
SWIDTH 576 0
DWIDTH 6 0
BBX 2 5 1 4
BITMAP
40
C0
40
40
40
ENDCHAR
STARTCHAR MASCULINE
ENCODING 186
SWIDTH 576 0
DWIDTH 6 0
BBX 4 6 1 2
BITMAP
60
90
90
60
00
F0
ENDCHAR
STARTCHAR RIGHT-POINTING
ENCODING 187
SWIDTH 576 0
DWIDTH 6 0
BBX 5 5 0 2
BITMAP
A0
50
28
50
A0
ENDCHAR
STARTCHAR VULGAR
ENCODING 188
SWIDTH 576 0
DWIDTH 6 0
BBX 5 8 1 0
BITMAP
40
40
50
20
48
A8
38
08
ENDCHAR
STARTCHAR VULGAR
ENCODING 189
SWIDTH 576 0
DWIDTH 6 0
BBX 4 8 1 0
BITMAP
80
90
A0
40
B0
10
20
30
ENDCHAR
STARTCHAR VULGAR
ENCODING 190
SWIDTH 576 0
DWIDTH 6 0
BBX 5 9 1 0
BITMAP
C0
40
C0
50
E0
48
A8
38
08
ENDCHAR
STARTCHAR INVERTED
ENCODING 191
SWIDTH 576 0
DWIDTH 6 0
BBX 4 7 1 0
BITMAP
20
00
20
40
80
90
60
ENDCHAR
STARTCHAR LATIN
ENCODING 192
SWIDTH 576 0
DWIDTH 6 0
BBX 4 9 1 0
BITMAP
40
20
60
90
90
90
F0
90
90
ENDCHAR
STARTCHAR LATIN
ENCODING 193
SWIDTH 576 0
DWIDTH 6 0
BBX 4 9 1 0
BITMAP
20
40
60
90
90
90
F0
90
90
ENDCHAR
STARTCHAR LATIN
ENCODING 194
SWIDTH 576 0
DWIDTH 6 0
BBX 4 9 1 0
BITMAP
60
90
00
60
90
90
F0
90
90
ENDCHAR
STARTCHAR LATIN
ENCODING 195
SWIDTH 576 0
DWIDTH 6 0
BBX 4 9 1 0
BITMAP
50
A0
00
60
90
90
F0
90
90
ENDCHAR
STARTCHAR LATIN
ENCODING 196
SWIDTH 576 0
DWIDTH 6 0
BBX 4 9 1 0
BITMAP
90
00
60
90
90
90
F0
90
90
ENDCHAR
STARTCHAR LATIN
ENCODING 197
SWIDTH 576 0
DWIDTH 6 0
BBX 4 9 1 0
BITMAP
60
00
60
90
90
90
F0
90
90
ENDCHAR
STARTCHAR LATIN
ENCODING 198
SWIDTH 576 0
DWIDTH 6 0
BBX 5 7 1 0
BITMAP
78
90
90
98
F0
90
98
ENDCHAR
STARTCHAR LATIN
ENCODING 199
SWIDTH 576 0
DWIDTH 6 0
BBX 4 8 1 -1
BITMAP
60
90
80
80
80
90
60
40
ENDCHAR
STARTCHAR LATIN
ENCODING 200
SWIDTH 576 0
DWIDTH 6 0
BBX 4 9 1 0
BITMAP
40
20
F0
80
80
E0
80
80
F0
ENDCHAR
STARTCHAR LATIN
ENCODING 201
SWIDTH 576 0
DWIDTH 6 0
BBX 4 9 1 0
BITMAP
20
40
F0
80
80
E0
80
80
F0
ENDCHAR
STARTCHAR LATIN
ENCODING 202
SWIDTH 576 0
DWIDTH 6 0
BBX 4 9 1 0
BITMAP
60
90
00
F0
80
E0
80
80
F0
ENDCHAR
STARTCHAR LATIN
ENCODING 203
SWIDTH 576 0
DWIDTH 6 0
BBX 4 9 1 0
BITMAP
90
00
F0
80
80
E0
80
80
F0
ENDCHAR
STARTCHAR LATIN
ENCODING 204
SWIDTH 576 0
DWIDTH 6 0
BBX 3 9 2 0
BITMAP
80
40
E0
40
40
40
40
40
E0
ENDCHAR
STARTCHAR LATIN
ENCODING 205
SWIDTH 576 0
DWIDTH 6 0
BBX 3 9 2 0
BITMAP
20
40
E0
40
40
40
40
40
E0
ENDCHAR
STARTCHAR LATIN
ENCODING 206
SWIDTH 576 0
DWIDTH 6 0
BBX 3 9 2 0
BITMAP
40
A0
00
E0
40
40
40
40
E0
ENDCHAR
STARTCHAR LATIN
ENCODING 207
SWIDTH 576 0
DWIDTH 6 0
BBX 3 9 2 0
BITMAP
A0
00
E0
40
40
40
40
40
E0
ENDCHAR
STARTCHAR LATIN
ENCODING 208
SWIDTH 576 0
DWIDTH 6 0
BBX 5 7 0 0
BITMAP
70
48
48
E8
48
48
70
ENDCHAR
STARTCHAR LATIN
ENCODING 209
SWIDTH 576 0
DWIDTH 6 0
BBX 4 9 1 0
BITMAP
50
A0
00
90
D0
D0
B0
B0
90
ENDCHAR
STARTCHAR LATIN
ENCODING 210
SWIDTH 576 0
DWIDTH 6 0
BBX 4 9 1 0
BITMAP
40
20
60
90
90
90
90
90
60
ENDCHAR
STARTCHAR LATIN
ENCODING 211
SWIDTH 576 0
DWIDTH 6 0
BBX 4 9 1 0
BITMAP
20
40
60
90
90
90
90
90
60
ENDCHAR
STARTCHAR LATIN
ENCODING 212
SWIDTH 576 0
DWIDTH 6 0
BBX 4 9 1 0
BITMAP
60
90
00
60
90
90
90
90
60
ENDCHAR
STARTCHAR LATIN
ENCODING 213
SWIDTH 576 0
DWIDTH 6 0
BBX 4 9 1 0
BITMAP
50
A0
00
60
90
90
90
90
60
ENDCHAR
STARTCHAR LATIN
ENCODING 214
SWIDTH 576 0
DWIDTH 6 0
BBX 4 9 1 0
BITMAP
90
00
60
90
90
90
90
90
60
ENDCHAR
STARTCHAR MULTIPLICATION
ENCODING 215
SWIDTH 500 0
DWIDTH 5 0
BBX 3 3 1 3
BITMAP
A0
40
A0
ENDCHAR
STARTCHAR LATIN
ENCODING 216
SWIDTH 576 0
DWIDTH 6 0
BBX 5 10 1 -1
BITMAP
08
08
70
98
A8
A8
C8
70
80
80
ENDCHAR
STARTCHAR LATIN
ENCODING 217
SWIDTH 576 0
DWIDTH 6 0
BBX 4 9 1 0
BITMAP
40
20
90
90
90
90
90
90
60
ENDCHAR
STARTCHAR LATIN
ENCODING 218
SWIDTH 576 0
DWIDTH 6 0
BBX 4 9 1 0
BITMAP
20
40
90
90
90
90
90
90
60
ENDCHAR
STARTCHAR LATIN
ENCODING 219
SWIDTH 576 0
DWIDTH 6 0
BBX 4 9 1 0
BITMAP
60
90
00
90
90
90
90
90
60
ENDCHAR
STARTCHAR LATIN
ENCODING 220
SWIDTH 576 0
DWIDTH 6 0
BBX 4 9 1 0
BITMAP
90
00
90
90
90
90
90
90
60
ENDCHAR
STARTCHAR LATIN
ENCODING 221
SWIDTH 576 0
DWIDTH 6 0
BBX 5 9 1 0
BITMAP
10
20
88
88
50
20
20
20
20
ENDCHAR
STARTCHAR LATIN
ENCODING 222
SWIDTH 576 0
DWIDTH 6 0
BBX 4 10 1 -2
BITMAP
80
80
80
E0
90
90
90
E0
80
80
ENDCHAR
STARTCHAR LATIN
ENCODING 223
SWIDTH 576 0
DWIDTH 6 0
BBX 4 8 1 0
BITMAP
60
90
A0
90
90
A0
80
80
ENDCHAR
STARTCHAR LATIN
ENCODING 224
SWIDTH 576 0
DWIDTH 6 0
BBX 4 9 1 0
BITMAP
40
20
00
60
90
90
90
B0
50
ENDCHAR
STARTCHAR LATIN
ENCODING 225
SWIDTH 576 0
DWIDTH 6 0
BBX 4 9 1 0
BITMAP
20
40
00
60
90
90
90
B0
50
ENDCHAR
STARTCHAR LATIN
ENCODING 226
SWIDTH 576 0
DWIDTH 6 0
BBX 4 9 1 0
BITMAP
60
90
00
60
90
90
90
B0
50
ENDCHAR
STARTCHAR LATIN
ENCODING 227
SWIDTH 576 0
DWIDTH 6 0
BBX 4 9 1 0
BITMAP
50
A0
00
60
90
90
90
B0
50
ENDCHAR
STARTCHAR LATIN
ENCODING 228
SWIDTH 576 0
DWIDTH 6 0
BBX 4 8 1 0
BITMAP
90
00
60
90
90
90
B0
50
ENDCHAR
STARTCHAR LATIN
ENCODING 229
SWIDTH 576 0
DWIDTH 6 0
BBX 4 8 1 0
BITMAP
60
00
60
90
90
90
B0
50
ENDCHAR
STARTCHAR LATIN
ENCODING 230
SWIDTH 576 0
DWIDTH 6 0
BBX 5 5 1 0
BITMAP
78
A8
B8
E0
B8
ENDCHAR
STARTCHAR LATIN
ENCODING 231
SWIDTH 576 0
DWIDTH 6 0
BBX 4 7 1 -1
BITMAP
60
90
80
80
90
60
40
ENDCHAR
STARTCHAR LATIN
ENCODING 232
SWIDTH 576 0
DWIDTH 6 0
BBX 4 9 1 0
BITMAP
40
20
00
60
90
F0
80
90
60
ENDCHAR
STARTCHAR LATIN
ENCODING 233
SWIDTH 576 0
DWIDTH 6 0
BBX 4 9 1 0
BITMAP
20
40
00
60
90
F0
80
90
60
ENDCHAR
STARTCHAR LATIN
ENCODING 234
SWIDTH 576 0
DWIDTH 6 0
BBX 4 9 1 0
BITMAP
60
90
00
60
90
F0
80
90
60
ENDCHAR
STARTCHAR LATIN
ENCODING 235
SWIDTH 576 0
DWIDTH 6 0
BBX 4 8 1 0
BITMAP
90
00
60
90
F0
80
90
60
ENDCHAR
STARTCHAR LATIN
ENCODING 236
SWIDTH 576 0
DWIDTH 6 0
BBX 3 9 2 0
BITMAP
80
40
00
C0
40
40
40
40
E0
ENDCHAR
STARTCHAR LATIN
ENCODING 237
SWIDTH 576 0
DWIDTH 6 0
BBX 3 9 2 0
BITMAP
20
40
00
C0
40
40
40
40
E0
ENDCHAR
STARTCHAR LATIN
ENCODING 238
SWIDTH 576 0
DWIDTH 6 0
BBX 3 9 2 0
BITMAP
40
A0
00
C0
40
40
40
40
E0
ENDCHAR
STARTCHAR LATIN
ENCODING 239
SWIDTH 576 0
DWIDTH 6 0
BBX 3 8 2 0
BITMAP
A0
00
C0
40
40
40
40
E0
ENDCHAR
STARTCHAR LATIN
ENCODING 240
SWIDTH 576 0
DWIDTH 6 0
BBX 5 8 0 0
BITMAP
68
30
48
70
88
88
88
70
ENDCHAR
STARTCHAR LATIN
ENCODING 241
SWIDTH 576 0
DWIDTH 6 0
BBX 4 9 1 0
BITMAP
50
A0
00
A0
D0
90
90
90
90
ENDCHAR
STARTCHAR LATIN
ENCODING 242
SWIDTH 576 0
DWIDTH 6 0
BBX 4 9 1 0
BITMAP
40
20
00
60
90
90
90
90
60
ENDCHAR
STARTCHAR LATIN
ENCODING 243
SWIDTH 576 0
DWIDTH 6 0
BBX 4 9 1 0
BITMAP
20
40
00
60
90
90
90
90
60
ENDCHAR
STARTCHAR LATIN
ENCODING 244
SWIDTH 576 0
DWIDTH 6 0
BBX 4 9 1 0
BITMAP
60
90
00
60
90
90
90
90
60
ENDCHAR
STARTCHAR LATIN
ENCODING 245
SWIDTH 576 0
DWIDTH 6 0
BBX 4 9 1 0
BITMAP
50
A0
00
60
90
90
90
90
60
ENDCHAR
STARTCHAR LATIN
ENCODING 246
SWIDTH 576 0
DWIDTH 6 0
BBX 4 8 1 0
BITMAP
90
00
60
90
90
90
90
60
ENDCHAR
STARTCHAR DIVISION
ENCODING 247
SWIDTH 576 0
DWIDTH 6 0
BBX 5 5 1 2
BITMAP
20
00
F8
00
20
ENDCHAR
STARTCHAR LATIN
ENCODING 248
SWIDTH 576 0
DWIDTH 6 0
BBX 5 9 1 -1
BITMAP
08
08
70
B8
A8
E8
70
80
80
ENDCHAR
STARTCHAR LATIN
ENCODING 249
SWIDTH 576 0
DWIDTH 6 0
BBX 4 9 1 0
BITMAP
40
20
00
90
90
90
90
B0
50
ENDCHAR
STARTCHAR LATIN
ENCODING 250
SWIDTH 576 0
DWIDTH 6 0
BBX 4 9 1 0
BITMAP
20
40
00
90
90
90
90
B0
50
ENDCHAR
STARTCHAR LATIN
ENCODING 251
SWIDTH 576 0
DWIDTH 6 0
BBX 4 9 1 0
BITMAP
60
90
00
90
90
90
90
B0
50
ENDCHAR
STARTCHAR LATIN
ENCODING 252
SWIDTH 576 0
DWIDTH 6 0
BBX 4 8 1 0
BITMAP
90
00
90
90
90
90
B0
50
ENDCHAR
STARTCHAR LATIN
ENCODING 253
SWIDTH 576 0
DWIDTH 6 0
BBX 4 11 1 -2
BITMAP
10
20
00
90
90
90
90
90
70
10
60
ENDCHAR
STARTCHAR LATIN
ENCODING 254
SWIDTH 576 0
DWIDTH 6 0
BBX 4 10 1 -2
BITMAP
80
80
E0
90
90
90
90
E0
80
80
ENDCHAR
STARTCHAR LATIN
ENCODING 255
SWIDTH 576 0
DWIDTH 6 0
BBX 4 10 1 -2
BITMAP
90
00
90
90
90
90
90
70
10
60
ENDCHAR
STARTCHAR block
ENCODING 9608
SWIDTH 576 0
DWIDTH 6 0
BBX 6 10 0 -1
BITMAP
FC
FC
FC
FC
FC
FC
FC
FC
FC
FC
ENDCHAR
STARTCHAR uniE0A0
ENCODING 57504
SWIDTH 576 0
DWIDTH 6 0
BBX 5 9 0 -1
BITMAP
80
90
98
90
90
20
40
80
80
ENDCHAR
STARTCHAR uniE0A1
ENCODING 57505
SWIDTH 576 0
DWIDTH 6 0
BBX 5 9 0 -1
BITMAP
80
80
80
E0
00
48
68
58
48
ENDCHAR
STARTCHAR uniE0A2
ENCODING 57506
SWIDTH 576 0
DWIDTH 6 0
BBX 5 9 0 -1
BITMAP
20
50
50
50
F8
D8
D8
F8
F8
ENDCHAR
STARTCHAR uniE0B0
ENCODING 57520
SWIDTH 576 0
DWIDTH 6 0
BBX 5 9 0 -1
BITMAP
80
C0
E0
F0
F8
F0
E0
C0
80
ENDCHAR
STARTCHAR uniE0B1
ENCODING 57521
SWIDTH 576 0
DWIDTH 6 0
BBX 5 9 0 -1
BITMAP
80
40
20
10
08
10
20
40
80
ENDCHAR
STARTCHAR uniE0B2
ENCODING 57522
SWIDTH 576 0
DWIDTH 6 0
BBX 5 9 1 -1
BITMAP
08
18
38
78
F8
78
38
18
08
ENDCHAR
STARTCHAR uniE0B3
ENCODING 57523
SWIDTH 576 0
DWIDTH 6 0
BBX 5 9 1 -1
BITMAP
08
10
20
40
80
40
20
10
08
ENDCHAR
STARTCHAR .notdef
ENCODING 57526
SWIDTH 576 0
DWIDTH 6 0
BBX 5 9 0 0
BITMAP
F8
88
88
88
88
88
88
88
F8
ENDCHAR
ENDFONT
